 <svg  version="1.0" xmlns="http://www.w3.org/2000/svg"  width="18.000000pt" height="18.000000pt" viewBox="0 0 900.000000 753.000000"  preserveAspectRatio="xMidYMid meet">  <g transform="translate(0.000000,753.000000) scale(0.100000,-0.100000)" fill="#fff" stroke="none"> <path d="M396 7283 c-75 -16 -122 -52 -158 -124 -30 -59 -35 -103 -16 -158 18 -52 73 -118 121 -144 42 -22 47 -22 517 -25 l475 -2 53 -26 c69 -35 124 -100 145 -172 28 -97 38 -135 52 -192 7 -30 21 -82 30 -115 9 -33 22 -85 30 -115 7 -30 21 -82 30 -115 9 -33 20 -76 24 -95 5 -19 19 -71 31 -115 12 -44 25 -96 30 -115 4 -19 18 -71 30 -115 41 -154 48 -181 80 -300 17 -66 35 -136 40 -155 4 -19 18 -71 30 -115 12 -44 28 -105 35 -135 13 -51 21 -83 60 -228 9 -31 22 -82 29 -112 8 -30 21 -82 30 -115 9 -33 23 -85 30 -115 8 -30 21 -80 29 -110 8 -30 29 -109 47 -175 17 -66 38 -145 46 -175 8 -30 21 -80 28 -110 8 -30 21 -82 30 -115 9 -33 23 -85 30 -115 8 -30 21 -80 29 -110 24 -89 78 -292 87 -330 4 -19 18 -71 30 -115 12 -44 26 -97 31 -118 5 -21 22 -66 38 -101 84 -186 200 -297 413 -397 9 -4 54 -17 101 -28 84 -21 104 -21 1783 -21 955 1 1717 5 1739 10 101 22 135 34 210 70 191 94 352 294 390 485 3 17 12 53 20 80 18 66 56 215 100 395 29 117 45 177 60 235 9 33 23 85 30 115 7 30 17 73 23 95 12 42 45 173 68 265 7 30 21 82 29 115 9 33 23 87 31 120 9 33 22 85 30 115 7 30 20 82 28 115 8 33 29 114 46 180 18 66 38 146 46 178 8 31 21 85 30 120 8 34 21 87 29 119 7 31 15 61 19 66 3 5 12 53 20 106 12 82 13 109 1 188 -19 126 -41 189 -99 278 -74 112 -185 212 -296 267 -100 49 -136 63 -158 63 -12 0 -33 6 -49 13 -22 9 -559 13 -2533 17 -2495 5 -2505 5 -2508 25 -2 11 -10 45 -18 75 -35 128 -46 167 -59 210 -7 25 -16 61 -20 80 -4 19 -13 55 -20 80 -7 25 -21 72 -30 105 -10 33 -35 98 -58 144 -33 69 -56 101 -131 176 -74 74 -108 100 -183 138 -50 26 -100 47 -111 47 -12 0 -23 4 -26 9 -3 5 -45 15 -93 22 -122 17 -923 19 -1007 2z m6763 -1607 c45 -25 113 -94 133 -134 30 -60 31 -103 3 -213 -15 -57 -33 -131 -42 -164 -8 -33 -21 -87 -30 -120 -8 -33 -21 -85 -28 -115 -8 -30 -28 -109 -45 -175 -18 -66 -38 -147 -47 -180 -8 -33 -21 -87 -30 -120 -8 -33 -21 -85 -28 -115 -8 -30 -35 -136 -60 -235 -26 -99 -53 -205 -60 -235 -8 -30 -23 -91 -35 -135 -12 -44 -26 -96 -30 -115 -4 -19 -22 -91 -40 -160 -17 -69 -38 -150 -45 -180 -43 -178 -69 -270 -85 -305 -21 -48 -80 -107 -130 -132 -33 -17 -131 -18 -1690 -21 -1255 -2 -1666 0 -1700 9 -49 13 -117 62 -151 110 -22 31 -29 53 -79 244 -16 61 -43 164 -60 230 -18 66 -36 139 -41 163 -5 24 -11 48 -15 54 -3 5 -12 35 -19 66 -7 32 -27 110 -44 175 -17 64 -45 170 -61 235 -17 64 -35 133 -40 152 -4 19 -18 71 -30 115 -12 44 -28 105 -35 135 -7 30 -20 80 -28 110 -30 112 -79 296 -87 330 -4 19 -18 71 -30 115 -11 44 -27 105 -35 135 -7 30 -20 80 -28 110 -80 291 -93 350 -83 375 5 14 270 15 2413 13 2354 -3 2409 -3 2442 -22z"/> <path d="M3250 2020 c-78 -18 -122 -31 -138 -39 -9 -5 -53 -27 -97 -48 -96 -46 -231 -169 -301 -274 -93 -141 -135 -323 -115 -501 25 -214 124 -385 303 -524 68 -53 218 -134 249 -134 8 0 33 -7 56 -15 58 -20 233 -29 330 -16 78 10 176 35 198 51 6 4 21 11 35 15 39 12 181 108 230 156 255 251 313 612 149 916 -98 182 -301 346 -486 392 -21 6 -56 15 -78 20 -46 12 -284 12 -335 1z m242 -461 c100 -21 164 -68 220 -161 30 -49 32 -60 33 -143 0 -74 -4 -98 -23 -136 -43 -87 -124 -154 -224 -183 -72 -21 -99 -20 -176 3 -146 45 -241 166 -242 307 0 47 23 135 41 159 68 88 128 131 209 151 61 16 99 16 162 3z"/> <path d="M6015 2024 c-126 -30 -271 -95 -357 -161 -86 -65 -173 -169 -219 -258 -55 -109 -67 -144 -84 -260 -14 -89 -14 -109 0 -195 18 -111 33 -162 77 -248 95 -188 263 -330 479 -403 91 -31 99 -32 259 -32 129 0 175 3 210 16 25 9 51 17 58 17 23 0 179 80 229 117 185 138 286 307 323 540 27 167 -28 372 -146 539 -49 70 -133 150 -213 202 -74 49 -96 59 -241 112 -35 12 -334 24 -375 14z m231 -466 c103 -20 192 -92 237 -192 24 -51 24 -176 1 -231 -39 -94 -131 -170 -244 -202 -53 -14 -70 -15 -123 -4 -85 17 -140 47 -193 103 -63 68 -84 122 -84 220 0 74 3 87 35 144 49 87 114 136 210 160 65 16 90 16 161 2z"/> </g> </svg> 